<svg xmlns="http://www.w3.org/2000/svg" width="489.168" height="724.51" viewBox="0 0 489.168 724.51"><g transform="translate(0.001 -0.003)"><path d="M697.533,575.135s-63.347-322.413,87.261-384.753S884.538,57.514,971.486,65.717s136.156,118.271,149.28,220.723S1184.465,630,1100.4,657.5C999.086,690.636,985.328,794.226,897.609,789.411,727.567,780.063,697.533,575.135,697.533,575.135Z" transform="translate(-671.644 -65.06)" fill="#f8f8ff"/><path d="M685.42,657.635l450.245-3.815s-153.035,5.837-154.522,55.5-19.366,92.327-86.383,97.424S782.47,730.07,696.667,730.52C638.89,730.818,685.42,657.635,685.42,657.635Z" transform="translate(-667.71 -204.574)" fill="#fff"/><path d="M1149.406,606.793,690.92,609.082s81.408-100.545,151-81.218c49.147,13.643,24.722-73.435,93.3-78.593s6.524,48.834,94.311,48.407C1088.645,497.382,1149.406,606.793,1149.406,606.793Z" transform="translate(-673.21 -156.021)" fill="#f2f4fc"/><path d="M1245.5,649.571h48.254s-4.693-17.428-19.435-16.787-14.749,8.393-14.749,8.393S1243.482,640.186,1245.5,649.571Z" transform="translate(-804.583 -199.585)" fill="#bac5f4"/><path d="M667.71,667.211h69.711s-1.343-11.392-9.385-11.392-7.371-26.813-25.47-27.469S673.074,636.377,667.71,667.211Z" transform="translate(-667.71 -198.531)" fill="#bac5f4"/></g></svg>