<svg xmlns="http://www.w3.org/2000/svg" width="45.289" height="40.76" viewBox="0 0 45.289 40.76"><path d="M37.611,25.69l-8.437,6.748H17.851V30.173h9.205A1.132,1.132,0,0,0,28,28.414L25.987,25.4a4.518,4.518,0,0,0-3.766-2.018H4.264A2.262,2.262,0,0,0,2,25.645V39.231A4.531,4.531,0,0,0,6.529,43.76H28.356a6.8,6.8,0,0,0,5.113-2.319l13.82-15.8L44,24.549A6.788,6.788,0,0,0,37.611,25.69ZM41.08,12.941a5.953,5.953,0,0,0,0-8.234A5.542,5.542,0,0,0,37.085,3a8.6,8.6,0,0,0-5.648,2.912A8.6,8.6,0,0,0,25.79,3,5.549,5.549,0,0,0,21.8,4.705a5.953,5.953,0,0,0,0,8.234L31.438,23.38Z" transform="translate(-2 -3)" fill="#0dd67f"/></svg>