<svg xmlns="http://www.w3.org/2000/svg" width="18.716" height="18.716" viewBox="0 0 18.716 18.716"><g transform="translate(0 0)"><path d="M14.968,12.556l-.007.058c-1.715-.855-1.894-.969-2.116-.636-.154.23-.6.752-.736.906s-.272.164-.5.058a6.329,6.329,0,0,1-1.874-1.158A7.075,7.075,0,0,1,8.437,10.17c-.228-.395.25-.451.685-1.274A.429.429,0,0,0,9.1,8.487c-.058-.117-.524-1.263-.719-1.72s-.38-.4-.524-.4a1.161,1.161,0,0,0-1.067.268c-1.259,1.383-.941,2.811.136,4.328,2.116,2.77,3.244,3.28,5.306,3.988a3.226,3.226,0,0,0,1.466.094,2.4,2.4,0,0,0,1.572-1.112,1.93,1.93,0,0,0,.14-1.111C15.355,12.719,15.2,12.661,14.968,12.556Z" transform="translate(-1.316 -1.399)" fill="#fff"/><path d="M16,2.69A9.36,9.36,0,0,0,.079,9.274a9.23,9.23,0,0,0,1.244,4.636L0,18.716l4.94-1.288A9.335,9.335,0,0,0,18.716,9.279,9.2,9.2,0,0,0,15.99,2.72Zm1.156,6.564A7.764,7.764,0,0,1,5.451,15.885l-.281-.167-2.924.76.784-2.842-.186-.292A7.734,7.734,0,0,1,14.889,3.8a7.633,7.633,0,0,1,2.269,5.451Z" transform="translate(0 0)" fill="#fff"/></g></svg>